<?xml version="1.0" standalone="no"?>
<!DOCTYPE svg PUBLIC "-//W3C//DTD SVG 20010904//EN"
 "http://www.w3.org/TR/2001/REC-SVG-20010904/DTD/svg10.dtd">
<svg version="1.0" xmlns="http://www.w3.org/2000/svg"
 width="500.000000pt" height="500.000000pt" viewBox="0 0 500.000000 500.000000"
 preserveAspectRatio="xMidYMid meet">
<metadata>
Created by potrace 1.14, written by Peter Selinger 2001-2017
</metadata>
<g transform="translate(0.000000,500.000000) scale(0.100000,-0.100000)"
fill="#000000" stroke="none">
<path d="M1943 3980 c-44 -18 -40 -57 23 -205 7 -16 22 -59 34 -94 26 -77 53
-133 74 -150 39 -33 84 51 70 133 -11 65 -82 259 -107 288 -25 31 -61 42 -94
28z"/>
<path d="M2722 3983 c-34 -13 -41 -56 -37 -229 1 -93 7 -181 13 -196 29 -71
91 -46 110 44 14 66 24 250 15 301 -10 61 -56 98 -101 80z"/>
<path d="M3408 3700 c-80 -50 -141 -122 -221 -262 -22 -39 -26 -52 -17 -68 6
-11 21 -20 33 -20 23 0 97 45 97 58 0 4 10 18 23 32 13 14 27 33 33 42 5 9 27
36 49 59 120 129 128 144 99 173 -22 23 -43 20 -96 -14z"/>
<path d="M1196 3514 c-9 -8 -16 -30 -16 -48 0 -35 22 -61 101 -118 26 -18 73
-55 105 -81 117 -96 174 -106 174 -33 0 27 -12 47 -57 98 -144 159 -261 229
-307 182z"/>
<path d="M2330 3444 c-157 -19 -326 -83 -454 -171 -51 -34 -226 -200 -226
-212 0 -4 -8 -16 -18 -27 -54 -60 -129 -207 -158 -315 -25 -90 -25 -279 0
-379 23 -90 88 -233 144 -314 54 -79 178 -204 249 -251 114 -75 138 -88 259
-139 125 -53 175 -61 374 -61 l185 0 110 38 c179 62 324 156 459 298 48 50 94
103 104 117 9 15 19 29 23 32 16 12 101 186 120 243 39 119 36 339 -6 462 -14
41 -93 191 -113 216 -6 8 -33 41 -60 74 -27 33 -75 83 -108 111 -61 52 -236
162 -289 182 -16 6 -61 22 -100 37 -38 14 -104 33 -145 41 -77 15 -287 26
-350 18z m348 -940 c-2 -9 -14 -25 -28 -35 -21 -16 -31 -17 -63 -8 -46 12 -43
18 26 40 67 22 69 22 65 3z"/>
<path d="M3897 3179 c-21 -5 -48 -16 -60 -24 -12 -8 -29 -15 -38 -15 -18 0
-197 -90 -241 -121 -47 -34 -30 -98 27 -99 11 0 65 23 119 50 55 28 104 50
110 50 13 0 140 51 184 74 36 18 48 47 32 76 -12 22 -62 26 -133 9z"/>
<path d="M870 2871 c-5 -11 -10 -26 -10 -34 0 -20 55 -66 105 -88 57 -25 246
-69 331 -76 69 -6 72 -5 89 21 15 22 15 31 5 55 -15 37 -25 41 -248 96 -206
50 -256 55 -272 26z"/>
<path d="M3690 2447 c-26 -9 -36 -19 -38 -37 -6 -50 13 -60 173 -86 83 -14
172 -31 198 -39 27 -8 76 -19 109 -25 52 -10 62 -9 79 6 25 23 24 58 -3 87
-27 28 -147 66 -284 91 -106 19 -185 20 -234 3z"/>
<path d="M1225 2138 c-16 -6 -34 -14 -40 -18 -33 -26 -181 -90 -243 -105 -85
-20 -118 -50 -100 -90 5 -12 21 -28 35 -34 58 -27 118 -9 328 97 141 71 172
100 146 141 -11 17 -88 23 -126 9z"/>
<path d="M3440 1941 c-6 -12 -7 -28 -3 -36 15 -27 277 -267 330 -302 56 -38
88 -38 102 0 16 44 2 60 -182 211 -164 133 -226 165 -247 127z"/>
<path d="M1727 1593 c-201 -211 -260 -343 -154 -343 23 0 41 12 81 53 53 56
57 60 96 117 13 19 27 37 30 40 25 19 80 106 80 126 0 29 -32 64 -59 64 -11 0
-44 -26 -74 -57z"/>
<path d="M3011 1594 c-21 -24 -7 -63 52 -156 30 -46 65 -104 77 -129 38 -74
98 -139 129 -139 33 0 51 16 51 46 0 32 -58 140 -128 236 -111 152 -147 180
-181 142z"/>
<path d="M2406 1471 c-12 -19 -35 -141 -47 -247 -18 -162 5 -230 69 -209 32
10 43 54 54 214 11 168 7 229 -14 242 -17 11 -55 11 -62 0z"/>
</g>
</svg>
